<?xml version="1.0" encoding="UTF-8"?>
<svg xmlns="http://www.w3.org/2000/svg" xmlns:xlink="http://www.w3.org/1999/xlink" width="30px" height="px" viewBox="0 0 50 50" version="1.1">
<g id="surface1">
<path style=" stroke:none;fill-rule:nonzero;fill:#74EABC;fill-opacity:1;" d="M 23.234375 0 L 10 0 C 7.238281 0 5 2.238281 5 5 L 5 35 C 5 37.761719 7.238281 40 10 40 L 30 40 C 32.761719 40 35 37.761719 35 35 L 35 11.765625 C 35 11.105469 34.738281 10.46875 34.265625 10 L 25 0.734375 C 24.53125 0.261719 23.894531 0 23.234375 0 Z M 23.75 8.75 L 23.75 3.75 L 31.25 11.25 L 26.25 11.25 C 24.871094 11.25 23.75 10.128906 23.75 8.75 Z M 15.886719 24.636719 C 15.394531 25.125 14.605469 25.125 14.113281 24.636719 C 13.625 24.144531 13.625 23.355469 14.113281 22.863281 L 19.113281 17.863281 C 19.347656 17.628906 19.667969 17.496094 20 17.496094 C 20.332031 17.496094 20.652344 17.628906 20.886719 17.863281 L 25.886719 22.863281 C 26.375 23.355469 26.375 24.144531 25.886719 24.636719 C 25.394531 25.125 24.605469 25.125 24.113281 24.636719 L 21.25 21.765625 L 21.25 31.25 C 21.25 31.941406 20.691406 32.5 20 32.5 C 19.308594 32.5 18.75 31.941406 18.75 31.25 L 18.75 21.765625 Z M 15.886719 24.636719 "/>
</g>
</svg>
