<?xml version="1.0" encoding="UTF-8"?>
<svg xmlns="http://www.w3.org/2000/svg" xmlns:xlink="http://www.w3.org/1999/xlink" width="30px" height="px" viewBox="0 0 50 50" version="1.1">
<g id="surface1">
<path style=" stroke:none;fill-rule:nonzero;fill:rgb(0%,0%,0%);fill-opacity:1;" d="M 27.707031 0.160156 C 27.96875 0.332031 28.125 0.625 28.125 0.9375 L 28.125 15 C 28.125 15.382812 27.890625 15.726562 27.535156 15.871094 L 27.1875 15 L 27.535156 15.871094 L 27.53125 15.871094 L 27.519531 15.878906 L 27.476562 15.894531 C 27.230469 15.992188 26.980469 16.085938 26.730469 16.175781 C 26.238281 16.355469 25.546875 16.59375 24.769531 16.832031 C 23.238281 17.304688 21.246094 17.8125 19.6875 17.8125 C 18.097656 17.8125 16.785156 17.289062 15.640625 16.828125 L 15.589844 16.808594 C 14.398438 16.332031 13.386719 15.9375 12.1875 15.9375 C 10.875 15.9375 9.117188 16.367188 7.617188 16.832031 C 6.949219 17.039062 6.28125 17.269531 5.625 17.515625 L 5.625 29.0625 C 5.625 29.582031 5.207031 30 4.6875 30 C 4.167969 30 3.75 29.582031 3.75 29.0625 L 3.75 0.9375 C 3.75 0.417969 4.167969 0 4.6875 0 C 5.207031 0 5.625 0.417969 5.625 0.9375 L 5.625 1.464844 C 6.046875 1.316406 6.554688 1.148438 7.105469 0.980469 C 8.636719 0.511719 10.632812 0 12.1875 0 C 13.761719 0 15.046875 0.519531 16.164062 0.972656 L 16.246094 1.007812 C 17.410156 1.476562 18.425781 1.875 19.6875 1.875 C 21 1.875 22.757812 1.445312 24.257812 0.980469 C 25.109375 0.714844 25.953125 0.417969 26.785156 0.0898438 L 26.820312 0.0742188 L 26.828125 0.0703125 L 26.832031 0.0703125 "/>
</g>
</svg>
