<?xml version="1.0" encoding="UTF-8"?>
<svg xmlns="http://www.w3.org/2000/svg" xmlns:xlink="http://www.w3.org/1999/xlink" width="30px" height="px" viewBox="0 0 50 50" version="1.1">
<g id="surface1">
<path style=" stroke:none;fill-rule:nonzero;fill:#74EABC;fill-opacity:1;" d="M 27.5 15 C 27.5 19.140625 24.140625 22.5 20 22.5 C 15.859375 22.5 12.5 19.140625 12.5 15 C 12.5 10.859375 15.859375 7.5 20 7.5 C 24.140625 7.5 27.5 10.859375 27.5 15 Z M 27.5 15 "/>
<path style=" stroke:none;fill-rule:evenodd;fill:#74EABC;fill-opacity:1;" d="M 0 20 C 0 8.953125 8.953125 0 20 0 C 31.046875 0 40 8.953125 40 20 C 40 31.046875 31.046875 40 20 40 C 8.953125 40 0 31.046875 0 20 Z M 20 2.5 C 13.273438 2.5 7.144531 6.355469 4.230469 12.414062 C 1.316406 18.476562 2.132812 25.671875 6.328125 30.925781 C 8.105469 28.066406 12.011719 25 20 25 C 27.988281 25 31.890625 28.0625 33.671875 30.925781 C 37.867188 25.671875 38.683594 18.476562 35.769531 12.414062 C 32.855469 6.355469 26.726562 2.5 20 2.5 Z M 20 2.5 "/>
</g>
</svg>
