<?xml version="1.0" encoding="UTF-8"?>
<svg xmlns="http://www.w3.org/2000/svg" xmlns:xlink="http://www.w3.org/1999/xlink" width="30px" height="px" viewBox="0 0 50 50" version="1.1">
<g id="surface1">
<path style=" stroke:none;fill-rule:nonzero;fill:#74EABC;fill-opacity:1;" d="M 40 20 C 40 31.046875 31.046875 40 20 40 C 8.953125 40 0 31.046875 0 20 C 0 8.953125 8.953125 0 20 0 C 31.046875 0 40 8.953125 40 20 Z M 13.738281 15.082031 L 15.800781 15.082031 C 16.148438 15.082031 16.421875 14.800781 16.46875 14.457031 C 16.691406 12.816406 17.816406 11.621094 19.824219 11.621094 C 21.539062 11.621094 23.109375 12.480469 23.109375 14.542969 C 23.109375 16.128906 22.171875 16.859375 20.695312 17.96875 C 19.011719 19.191406 17.679688 20.621094 17.773438 22.9375 L 17.78125 23.480469 C 17.789062 23.820312 18.066406 24.09375 18.40625 24.09375 L 20.433594 24.09375 C 20.78125 24.09375 21.058594 23.816406 21.058594 23.46875 L 21.058594 23.207031 C 21.058594 21.414062 21.742188 20.890625 23.585938 19.492188 C 25.109375 18.335938 26.695312 17.050781 26.695312 14.351562 C 26.695312 10.574219 23.503906 8.75 20.011719 8.75 C 16.84375 8.75 13.375 10.226562 13.136719 14.464844 C 13.128906 14.628906 13.191406 14.785156 13.304688 14.902344 C 13.417969 15.019531 13.578125 15.085938 13.738281 15.082031 Z M 19.550781 31.191406 C 21.078125 31.191406 22.125 30.203125 22.125 28.871094 C 22.125 27.492188 21.074219 26.523438 19.550781 26.523438 C 18.09375 26.523438 17.03125 27.492188 17.03125 28.871094 C 17.03125 30.203125 18.09375 31.191406 19.554688 31.191406 Z M 19.550781 31.191406 "/>
</g>
</svg>
